<svg width="373" height="208" viewBox="0 0 373 208" fill="none" xmlns="http://www.w3.org/2000/svg">
<circle cx="150" cy="50" r="50" fill="#339975"/>
<circle cx="258" cy="158" r="50" fill="#339975"/>
<circle cx="258" cy="50" r="50" fill="#339975"/>
<rect y="108" width="200" height="100" rx="50" fill="#339975"/>
<g clip-path="url(#clip0_288_401)">
<mask id="mask0_288_401" style="mask-type:alpha" maskUnits="userSpaceOnUse" x="308" y="72" width="65" height="65">
<path d="M340.447 72C341.127 72 341.72 72.465 341.886 73.125C342.393 75.1436 343.062 77.1183 343.885 79.03C346.037 84.03 348.99 88.406 352.739 92.155C356.49 95.905 360.865 98.858 365.864 101.01C367.776 101.833 369.751 102.501 371.77 103.009C372.43 103.175 372.894 103.767 372.894 104.447C372.894 105.127 372.43 105.72 371.769 105.886C369.75 106.393 367.776 107.062 365.864 107.885C360.864 110.037 356.489 112.99 352.739 116.739C348.99 120.49 346.037 124.865 343.885 129.864C343.062 131.776 342.393 133.751 341.885 135.77C341.805 136.091 341.62 136.375 341.359 136.579C341.099 136.783 340.778 136.893 340.447 136.894C339.767 136.894 339.175 136.43 339.009 135.769C338.501 133.75 337.833 131.776 337.009 129.864C334.858 124.864 331.906 120.489 328.155 116.739C324.405 112.99 320.03 110.037 315.03 107.885C313.118 107.062 311.144 106.393 309.125 105.885C308.804 105.805 308.519 105.62 308.316 105.36C308.112 105.099 308.001 104.779 308 104.448C308 103.768 308.465 103.176 309.125 103.01C311.144 102.502 313.118 101.834 315.03 101.01C320.03 98.859 324.406 95.906 328.155 92.156C331.905 88.407 334.858 84.031 337.01 79.031C337.833 77.1192 338.501 75.1446 339.009 73.126C339.089 72.8049 339.274 72.5198 339.534 72.3158C339.795 72.1118 340.116 72.0007 340.447 72Z" fill="black"/>
<path d="M340.447 72C341.127 72 341.72 72.465 341.886 73.125C342.393 75.1436 343.062 77.1183 343.885 79.03C346.037 84.03 348.99 88.406 352.739 92.155C356.49 95.905 360.865 98.858 365.864 101.01C367.776 101.833 369.751 102.501 371.77 103.009C372.43 103.175 372.894 103.767 372.894 104.447C372.894 105.127 372.43 105.72 371.769 105.886C369.75 106.393 367.776 107.062 365.864 107.885C360.864 110.037 356.489 112.99 352.739 116.739C348.99 120.49 346.037 124.865 343.885 129.864C343.062 131.776 342.393 133.751 341.885 135.77C341.805 136.091 341.62 136.375 341.359 136.579C341.099 136.783 340.778 136.893 340.447 136.894C339.767 136.894 339.175 136.43 339.009 135.769C338.501 133.75 337.833 131.776 337.009 129.864C334.858 124.864 331.906 120.489 328.155 116.739C324.405 112.99 320.03 110.037 315.03 107.885C313.118 107.062 311.144 106.393 309.125 105.885C308.804 105.805 308.519 105.62 308.316 105.36C308.112 105.099 308.001 104.779 308 104.448C308 103.768 308.465 103.176 309.125 103.01C311.144 102.502 313.118 101.834 315.03 101.01C320.03 98.859 324.406 95.906 328.155 92.156C331.905 88.407 334.858 84.031 337.01 79.031C337.833 77.1192 338.501 75.1446 339.009 73.126C339.089 72.8049 339.274 72.5198 339.534 72.3158C339.795 72.1118 340.116 72.0007 340.447 72Z" fill="url(#paint0_linear_288_401)"/>
</mask>
<g mask="url(#mask0_288_401)">
<g filter="url(#filter0_f_288_401)">
<path d="M302.141 122.734C309.639 125.397 318.257 120.404 321.39 111.582C324.523 102.761 320.984 93.4511 313.486 90.7881C305.988 88.1251 297.37 93.1181 294.236 101.939C291.104 110.761 294.643 120.071 302.141 122.734Z" fill="#339975"/>
</g>
<g filter="url(#filter1_f_288_401)">
<path d="M335.433 93.6489C345.733 93.6489 354.084 85.1139 354.084 74.5869C354.084 64.0589 345.734 55.5249 335.433 55.5249C325.132 55.5249 316.78 64.0599 316.78 74.5869C316.78 85.1139 325.131 93.6489 335.433 93.6489Z" fill="#339975"/>
</g>
<g filter="url(#filter2_f_288_401)">
<path d="M328.184 154.608C338.937 154.083 347.102 142.364 346.421 128.434C345.741 114.504 336.471 103.637 325.718 104.163C314.965 104.689 306.8 116.407 307.481 130.337C308.162 144.267 317.431 155.134 328.184 154.608Z" fill="#339975"/>
</g>
<g filter="url(#filter3_f_288_401)">
<path d="M328.184 154.608C338.937 154.083 347.102 142.364 346.421 128.434C345.741 114.504 336.471 103.637 325.718 104.163C314.965 104.689 306.8 116.407 307.481 130.337C308.162 144.267 317.431 155.134 328.184 154.608Z" fill="#339975"/>
</g>
<g filter="url(#filter4_f_288_401)">
<path d="M338.954 146.181C347.968 140.696 350.381 128.205 344.343 118.281C338.305 108.356 326.102 104.757 317.087 110.241C308.072 115.727 305.659 128.218 311.697 138.143C317.737 148.067 329.939 151.666 338.954 146.181Z" fill="#339975"/>
</g>
<g filter="url(#filter5_f_288_401)">
<path d="M375.391 114.993C385.523 114.993 393.737 107.083 393.737 97.3272C393.737 87.5702 385.523 79.6602 375.391 79.6602C365.259 79.6602 357.045 87.5702 357.045 97.3272C357.045 107.084 365.259 114.993 375.391 114.993Z" fill="#339975"/>
</g>
<g filter="url(#filter6_f_288_401)">
<path d="M294.935 112.944C304.265 120.038 317.894 117.813 325.377 107.972C332.86 98.1318 331.364 84.4028 322.034 77.3088C312.704 70.2138 299.076 72.4388 291.592 82.2798C284.109 92.1198 285.606 105.85 294.935 112.944Z" fill="#339975"/>
</g>
<g filter="url(#filter7_f_288_401)">
<path d="M342.74 123.43C353.875 131.086 368.636 128.954 375.708 118.666C382.781 108.379 379.487 93.834 368.351 86.178C357.215 78.52 342.455 80.654 335.382 90.94C328.31 101.228 331.603 115.773 342.739 123.43H342.74Z" fill="#339975"/>
</g>
<g filter="url(#filter8_f_288_401)">
<path d="M362.984 69.6641C365.817 73.5161 362.176 81.0041 354.853 86.3911C347.529 91.7781 339.296 93.0221 336.463 89.1711C333.63 85.3181 337.27 77.8291 344.593 72.4431C351.917 67.0561 360.151 65.8121 362.983 69.6631L362.984 69.6641Z" fill="#339975"/>
</g>
<g filter="url(#filter9_f_288_401)">
<path d="M339.727 88.104C351.053 77.598 354.94 63.374 348.41 56.334C341.88 49.294 327.404 52.102 316.078 62.608C304.752 73.114 300.864 87.338 307.395 94.378C313.925 101.418 328.401 98.61 339.727 88.104Z" fill="#339975"/>
</g>
<g filter="url(#filter10_f_288_401)">
<path d="M316.51 125.838C323.242 130.656 330.97 131.388 333.772 127.474C336.574 123.559 333.388 116.48 326.656 111.662C319.925 106.844 312.196 106.112 309.395 110.026C306.593 113.941 309.778 121.02 316.51 125.838Z" fill="#339975"/>
</g>
</g>
</g>
<defs>
<filter id="filter0_f_288_401" x="288.175" y="85.1518" width="39.276" height="43.2184" filterUnits="userSpaceOnUse" color-interpolation-filters="sRGB">
<feFlood flood-opacity="0" result="BackgroundImageFix"/>
<feBlend mode="normal" in="SourceGraphic" in2="BackgroundImageFix" result="shape"/>
<feGaussianBlur stdDeviation="2.46" result="effect1_foregroundBlur_288_401"/>
</filter>
<filter id="filter1_f_288_401" x="292.998" y="31.7429" width="84.8682" height="85.688" filterUnits="userSpaceOnUse" color-interpolation-filters="sRGB">
<feFlood flood-opacity="0" result="BackgroundImageFix"/>
<feBlend mode="normal" in="SourceGraphic" in2="BackgroundImageFix" result="shape"/>
<feGaussianBlur stdDeviation="11.891" result="effect1_foregroundBlur_288_401"/>
</filter>
<filter id="filter2_f_288_401" x="287.223" y="83.9265" width="79.4555" height="90.9174" filterUnits="userSpaceOnUse" color-interpolation-filters="sRGB">
<feFlood flood-opacity="0" result="BackgroundImageFix"/>
<feBlend mode="normal" in="SourceGraphic" in2="BackgroundImageFix" result="shape"/>
<feGaussianBlur stdDeviation="10.109" result="effect1_foregroundBlur_288_401"/>
</filter>
<filter id="filter3_f_288_401" x="287.223" y="83.9265" width="79.4555" height="90.9174" filterUnits="userSpaceOnUse" color-interpolation-filters="sRGB">
<feFlood flood-opacity="0" result="BackgroundImageFix"/>
<feBlend mode="normal" in="SourceGraphic" in2="BackgroundImageFix" result="shape"/>
<feGaussianBlur stdDeviation="10.109" result="effect1_foregroundBlur_288_401"/>
</filter>
<filter id="filter4_f_288_401" x="288.154" y="87.4583" width="79.7324" height="81.5063" filterUnits="userSpaceOnUse" color-interpolation-filters="sRGB">
<feFlood flood-opacity="0" result="BackgroundImageFix"/>
<feBlend mode="normal" in="SourceGraphic" in2="BackgroundImageFix" result="shape"/>
<feGaussianBlur stdDeviation="10.109" result="effect1_foregroundBlur_288_401"/>
</filter>
<filter id="filter5_f_288_401" x="337.833" y="60.4482" width="75.1159" height="73.757" filterUnits="userSpaceOnUse" color-interpolation-filters="sRGB">
<feFlood flood-opacity="0" result="BackgroundImageFix"/>
<feBlend mode="normal" in="SourceGraphic" in2="BackgroundImageFix" result="shape"/>
<feGaussianBlur stdDeviation="9.606" result="effect1_foregroundBlur_288_401"/>
</filter>
<filter id="filter6_f_288_401" x="269.417" y="55.7467" width="78.1355" height="78.7586" filterUnits="userSpaceOnUse" color-interpolation-filters="sRGB">
<feFlood flood-opacity="0" result="BackgroundImageFix"/>
<feBlend mode="normal" in="SourceGraphic" in2="BackgroundImageFix" result="shape"/>
<feGaussianBlur stdDeviation="8.706" result="effect1_foregroundBlur_288_401"/>
</filter>
<filter id="filter7_f_288_401" x="316.106" y="66.033" width="78.8783" height="77.5409" filterUnits="userSpaceOnUse" color-interpolation-filters="sRGB">
<feFlood flood-opacity="0" result="BackgroundImageFix"/>
<feBlend mode="normal" in="SourceGraphic" in2="BackgroundImageFix" result="shape"/>
<feGaussianBlur stdDeviation="7.775" result="effect1_foregroundBlur_288_401"/>
</filter>
<filter id="filter8_f_288_401" x="321.587" y="53.5118" width="56.2718" height="51.8109" filterUnits="userSpaceOnUse" color-interpolation-filters="sRGB">
<feFlood flood-opacity="0" result="BackgroundImageFix"/>
<feBlend mode="normal" in="SourceGraphic" in2="BackgroundImageFix" result="shape"/>
<feGaussianBlur stdDeviation="6.957" result="effect1_foregroundBlur_288_401"/>
</filter>
<filter id="filter9_f_288_401" x="292.474" y="40.7031" width="70.8565" height="69.3058" filterUnits="userSpaceOnUse" color-interpolation-filters="sRGB">
<feFlood flood-opacity="0" result="BackgroundImageFix"/>
<feBlend mode="normal" in="SourceGraphic" in2="BackgroundImageFix" result="shape"/>
<feGaussianBlur stdDeviation="5.876" result="effect1_foregroundBlur_288_401"/>
</filter>
<filter id="filter10_f_288_401" x="293.831" y="92.9633" width="55.5036" height="51.573" filterUnits="userSpaceOnUse" color-interpolation-filters="sRGB">
<feFlood flood-opacity="0" result="BackgroundImageFix"/>
<feBlend mode="normal" in="SourceGraphic" in2="BackgroundImageFix" result="shape"/>
<feGaussianBlur stdDeviation="7.273" result="effect1_foregroundBlur_288_401"/>
</filter>
<linearGradient id="paint0_linear_288_401" x1="326.447" y1="115.42" x2="360.153" y2="87.004" gradientUnits="userSpaceOnUse">
<stop stop-color="#4893FC"/>
<stop offset="0.27" stop-color="#4893FC"/>
<stop offset="0.777" stop-color="#969DFF"/>
<stop offset="1" stop-color="#BD99FE"/>
</linearGradient>
<clipPath id="clip0_288_401">
<rect width="65" height="65" fill="white" transform="translate(308 72)"/>
</clipPath>
</defs>
</svg>
