<svg width="373" height="331" viewBox="0 0 373 331" fill="none" xmlns="http://www.w3.org/2000/svg">
<circle cx="150" cy="50" r="50" fill="#339975"/>
<circle cx="258" cy="158" r="50" fill="#339975"/>
<circle cx="258" cy="50" r="50" fill="#339975"/>
<rect y="108" width="200" height="100" rx="50" fill="#339975"/>
<g clip-path="url(#clip0_290_404)">
<mask id="mask0_290_404" style="mask-type:alpha" maskUnits="userSpaceOnUse" x="308" y="72" width="65" height="65">
<path d="M340.447 72C341.127 72 341.72 72.465 341.886 73.125C342.393 75.1436 343.062 77.1183 343.885 79.03C346.037 84.03 348.99 88.406 352.739 92.155C356.49 95.905 360.865 98.858 365.864 101.01C367.776 101.833 369.751 102.501 371.77 103.009C372.43 103.175 372.894 103.767 372.894 104.447C372.894 105.127 372.43 105.72 371.769 105.886C369.75 106.393 367.776 107.062 365.864 107.885C360.864 110.037 356.489 112.99 352.739 116.739C348.99 120.49 346.037 124.865 343.885 129.864C343.062 131.776 342.393 133.751 341.885 135.77C341.805 136.091 341.62 136.375 341.359 136.579C341.099 136.783 340.778 136.893 340.447 136.894C339.767 136.894 339.175 136.43 339.009 135.769C338.501 133.75 337.833 131.776 337.009 129.864C334.858 124.864 331.906 120.489 328.155 116.739C324.405 112.99 320.03 110.037 315.03 107.885C313.118 107.062 311.144 106.393 309.125 105.885C308.804 105.805 308.519 105.62 308.316 105.36C308.112 105.099 308.001 104.779 308 104.448C308 103.768 308.465 103.176 309.125 103.01C311.144 102.502 313.118 101.834 315.03 101.01C320.03 98.859 324.406 95.906 328.155 92.156C331.905 88.407 334.858 84.031 337.01 79.031C337.833 77.1192 338.501 75.1446 339.009 73.126C339.089 72.8049 339.274 72.5198 339.534 72.3158C339.795 72.1118 340.116 72.0007 340.447 72Z" fill="black"/>
<path d="M340.447 72C341.127 72 341.72 72.465 341.886 73.125C342.393 75.1436 343.062 77.1183 343.885 79.03C346.037 84.03 348.99 88.406 352.739 92.155C356.49 95.905 360.865 98.858 365.864 101.01C367.776 101.833 369.751 102.501 371.77 103.009C372.43 103.175 372.894 103.767 372.894 104.447C372.894 105.127 372.43 105.72 371.769 105.886C369.75 106.393 367.776 107.062 365.864 107.885C360.864 110.037 356.489 112.99 352.739 116.739C348.99 120.49 346.037 124.865 343.885 129.864C343.062 131.776 342.393 133.751 341.885 135.77C341.805 136.091 341.62 136.375 341.359 136.579C341.099 136.783 340.778 136.893 340.447 136.894C339.767 136.894 339.175 136.43 339.009 135.769C338.501 133.75 337.833 131.776 337.009 129.864C334.858 124.864 331.906 120.489 328.155 116.739C324.405 112.99 320.03 110.037 315.03 107.885C313.118 107.062 311.144 106.393 309.125 105.885C308.804 105.805 308.519 105.62 308.316 105.36C308.112 105.099 308.001 104.779 308 104.448C308 103.768 308.465 103.176 309.125 103.01C311.144 102.502 313.118 101.834 315.03 101.01C320.03 98.859 324.406 95.906 328.155 92.156C331.905 88.407 334.858 84.031 337.01 79.031C337.833 77.1192 338.501 75.1446 339.009 73.126C339.089 72.8049 339.274 72.5198 339.534 72.3158C339.795 72.1118 340.116 72.0007 340.447 72Z" fill="url(#paint0_linear_290_404)"/>
</mask>
<g mask="url(#mask0_290_404)">
<g filter="url(#filter0_f_290_404)">
<path d="M302.141 122.734C309.639 125.397 318.257 120.404 321.39 111.582C324.523 102.761 320.984 93.4511 313.486 90.7881C305.988 88.1251 297.37 93.1181 294.236 101.939C291.104 110.761 294.643 120.071 302.141 122.734Z" fill="#339975"/>
</g>
<g filter="url(#filter1_f_290_404)">
<path d="M335.433 93.6489C345.733 93.6489 354.084 85.1139 354.084 74.5869C354.084 64.0589 345.734 55.5249 335.433 55.5249C325.132 55.5249 316.78 64.0599 316.78 74.5869C316.78 85.1139 325.131 93.6489 335.433 93.6489Z" fill="#339975"/>
</g>
<g filter="url(#filter2_f_290_404)">
<path d="M328.184 154.608C338.937 154.083 347.102 142.364 346.421 128.434C345.741 114.504 336.471 103.637 325.718 104.163C314.965 104.689 306.8 116.407 307.481 130.337C308.162 144.267 317.431 155.134 328.184 154.608Z" fill="#339975"/>
</g>
<g filter="url(#filter3_f_290_404)">
<path d="M328.184 154.608C338.937 154.083 347.102 142.364 346.421 128.434C345.741 114.504 336.471 103.637 325.718 104.163C314.965 104.689 306.8 116.407 307.481 130.337C308.162 144.267 317.431 155.134 328.184 154.608Z" fill="#339975"/>
</g>
<g filter="url(#filter4_f_290_404)">
<path d="M338.954 146.181C347.968 140.696 350.381 128.205 344.343 118.281C338.305 108.356 326.102 104.757 317.087 110.241C308.072 115.727 305.659 128.218 311.697 138.143C317.737 148.067 329.939 151.666 338.954 146.181Z" fill="#339975"/>
</g>
<g filter="url(#filter5_f_290_404)">
<path d="M375.391 114.993C385.523 114.993 393.737 107.083 393.737 97.3272C393.737 87.5702 385.523 79.6602 375.391 79.6602C365.259 79.6602 357.045 87.5702 357.045 97.3272C357.045 107.084 365.259 114.993 375.391 114.993Z" fill="#339975"/>
</g>
<g filter="url(#filter6_f_290_404)">
<path d="M294.935 112.944C304.265 120.038 317.894 117.813 325.377 107.972C332.86 98.1318 331.364 84.4028 322.034 77.3088C312.704 70.2138 299.076 72.4388 291.592 82.2798C284.109 92.1198 285.606 105.85 294.935 112.944Z" fill="#339975"/>
</g>
<g filter="url(#filter7_f_290_404)">
<path d="M342.74 123.43C353.875 131.086 368.636 128.954 375.708 118.666C382.781 108.379 379.487 93.834 368.351 86.178C357.215 78.52 342.455 80.654 335.382 90.94C328.31 101.228 331.603 115.773 342.739 123.43H342.74Z" fill="#339975"/>
</g>
<g filter="url(#filter8_f_290_404)">
<path d="M362.984 69.6641C365.817 73.5161 362.176 81.0041 354.853 86.3911C347.529 91.7781 339.296 93.0221 336.463 89.1711C333.63 85.3181 337.27 77.8291 344.593 72.4431C351.917 67.0561 360.151 65.8121 362.983 69.6631L362.984 69.6641Z" fill="#339975"/>
</g>
<g filter="url(#filter9_f_290_404)">
<path d="M339.727 88.104C351.053 77.598 354.94 63.374 348.41 56.334C341.88 49.294 327.404 52.102 316.078 62.608C304.752 73.114 300.864 87.338 307.395 94.378C313.925 101.418 328.401 98.61 339.727 88.104Z" fill="#339975"/>
</g>
<g filter="url(#filter10_f_290_404)">
<path d="M316.51 125.838C323.242 130.656 330.97 131.388 333.772 127.474C336.574 123.559 333.388 116.48 326.656 111.662C319.925 106.844 312.196 106.112 309.395 110.026C306.593 113.941 309.778 121.02 316.51 125.838Z" fill="#339975"/>
</g>
</g>
</g>
<path d="M47.9792 274.933C50.9688 277.496 52.8479 281.938 52.8479 286.208C52.8479 291.76 51.3958 296.885 47.5521 300.473C43.9646 303.804 40.2917 305 32.9458 305H6.97917V243.5H31.4938C36.875 243.5 40.975 244.61 44.6479 248.027C48.4063 251.529 49.9438 255.885 50.0292 261.01C50.1146 265.452 48.2354 269.467 45.5875 271.602C45.075 272.029 44.6479 272.371 44.05 272.627C45.5021 273.225 46.8688 273.994 47.9792 274.933ZM31.4083 254.348H18.7667V267.502H31.4083C33.9708 267.502 35.5083 266.733 36.7896 265.452C37.9854 264.256 38.2417 262.633 38.2417 261.01C38.2417 259.302 37.7292 257.508 36.3625 256.142C35.0813 254.86 33.4583 254.348 31.4083 254.348ZM38.8396 291.846C40.3771 290.394 41.1458 288.429 41.1458 286.208C41.1458 284.158 40.5479 281.938 39.0104 280.4C37.2167 278.606 34.825 278.35 33.0313 278.35H18.7667V294.067H33.0313C35.5083 294.067 37.3021 293.298 38.8396 291.846ZM72.1414 285.183C72.4831 287.49 73.1664 289.71 74.5331 291.504C76.4122 294.067 79.5727 295.433 82.9893 295.433C85.7227 295.433 87.8581 294.75 89.5664 293.383C91.2747 292.017 92.0435 290.735 92.556 289.625L104.173 292.956C102.635 296.715 99.731 300.302 96.1435 302.608C92.556 304.915 87.9435 306.281 83.6727 306.281C76.6685 306.281 69.4935 303.633 65.3081 298.594C61.5497 293.981 59.6706 288.429 59.6706 282.535C59.6706 275.873 61.6352 269.723 65.3081 265.281C69.5789 260.242 76.156 257.594 82.9893 257.594C89.8227 257.594 95.2039 259.815 99.4747 264.854C104.087 270.235 105.198 277.154 104.6 285.183H72.1414ZM82.9893 267.673C79.9997 267.673 76.9247 268.527 74.6185 271.431C73.4227 272.969 72.8247 274.506 72.3977 276.215H92.9831C92.8122 274.335 92.2997 272.627 91.1039 271.09C89.3102 268.783 86.1497 267.673 82.9893 267.673ZM128.554 267.844V284.756C128.554 288.344 128.383 291.333 129.493 293.042C130.604 294.835 132.568 295.519 134.362 295.69C136.583 295.86 139.402 295.69 141.879 295.348V305C138.291 306.025 131.8 305.94 128.383 305.342C124.112 304.573 121.464 303.206 118.987 299.533C116.425 295.775 116.937 290.992 116.937 285.44V267.844H109.079V258.875H116.937V246.062H128.554V258.875H141.879V267.844H128.554ZM197.432 243.5V254.348H178.042V305H166.425V254.348H147.036V243.5H197.432ZM207.393 285.183C207.735 287.49 208.418 289.71 209.785 291.504C211.664 294.067 214.825 295.433 218.241 295.433C220.975 295.433 223.11 294.75 224.818 293.383C226.527 292.017 227.295 290.735 227.808 289.625L239.425 292.956C237.887 296.715 234.983 300.302 231.395 302.608C227.808 304.915 223.195 306.281 218.925 306.281C211.92 306.281 204.745 303.633 200.56 298.594C196.802 293.981 194.923 288.429 194.923 282.535C194.923 275.873 196.887 269.723 200.56 265.281C204.831 260.242 211.408 257.594 218.241 257.594C225.075 257.594 230.456 259.815 234.727 264.854C239.339 270.235 240.45 277.154 239.852 285.183H207.393ZM218.241 267.673C215.252 267.673 212.177 268.527 209.87 271.431C208.675 272.969 208.077 274.506 207.65 276.215H228.235C228.064 274.335 227.552 272.627 226.356 271.09C224.562 268.783 221.402 267.673 218.241 267.673ZM287.269 305H277.104V299.362C272.492 304.658 268.306 306.281 261.217 306.281C251.906 306.281 246.012 300.644 246.012 292.017C246.012 286.037 248.319 281.425 254.127 278.777C259.935 276.129 269.673 275.104 275.737 274.25C274.969 270.919 272.15 268.527 266.854 268.527C262.327 268.527 258.312 270.235 255.323 272.883L248.66 265.196C253.529 260.583 259.423 257.594 267.708 257.594C272.748 257.594 277.873 259.815 281.204 262.633C285.731 266.477 287.269 271.687 287.269 277.496V305ZM274.2 291.333C275.823 288.856 275.737 285.696 275.737 283.304C273.004 283.817 268.477 284.756 264.121 285.696C260.619 286.465 257.458 288.087 257.458 291.162C257.458 294.323 260.277 296.629 264.035 296.629C268.477 296.629 272.15 294.408 274.2 291.333ZM361.506 262.035C365.521 266.221 365.948 271.004 365.948 276.898V305H354.161V277.752C354.161 274.421 353.563 272.371 351.94 270.577C350.488 268.954 348.267 268.1 346.046 268.1C343.825 268.1 341.604 269.04 340.152 270.662C338.358 272.712 338.017 274.762 338.017 277.069V305H326.229V277.752C326.229 274.421 325.631 272.371 324.008 270.577C322.556 268.954 320.336 268.1 318.115 268.1C315.894 268.1 313.673 269.04 312.221 270.662C310.427 272.712 310.086 274.762 310.086 277.069V305H298.383V258.875H308.633V263.829C311.879 259.985 316.833 257.765 321.958 257.765C325.802 257.765 330.671 258.96 333.575 262.035C334.429 262.975 335.198 263.915 335.711 264.854C338.956 260.412 344.252 257.765 349.89 257.765C353.733 257.765 358.602 258.96 361.506 262.035Z" fill="#339975"/>
<defs>
<filter id="filter0_f_290_404" x="288.175" y="85.1518" width="39.276" height="43.2184" filterUnits="userSpaceOnUse" color-interpolation-filters="sRGB">
<feFlood flood-opacity="0" result="BackgroundImageFix"/>
<feBlend mode="normal" in="SourceGraphic" in2="BackgroundImageFix" result="shape"/>
<feGaussianBlur stdDeviation="2.46" result="effect1_foregroundBlur_290_404"/>
</filter>
<filter id="filter1_f_290_404" x="292.998" y="31.7429" width="84.8682" height="85.688" filterUnits="userSpaceOnUse" color-interpolation-filters="sRGB">
<feFlood flood-opacity="0" result="BackgroundImageFix"/>
<feBlend mode="normal" in="SourceGraphic" in2="BackgroundImageFix" result="shape"/>
<feGaussianBlur stdDeviation="11.891" result="effect1_foregroundBlur_290_404"/>
</filter>
<filter id="filter2_f_290_404" x="287.223" y="83.9265" width="79.4555" height="90.9174" filterUnits="userSpaceOnUse" color-interpolation-filters="sRGB">
<feFlood flood-opacity="0" result="BackgroundImageFix"/>
<feBlend mode="normal" in="SourceGraphic" in2="BackgroundImageFix" result="shape"/>
<feGaussianBlur stdDeviation="10.109" result="effect1_foregroundBlur_290_404"/>
</filter>
<filter id="filter3_f_290_404" x="287.223" y="83.9265" width="79.4555" height="90.9174" filterUnits="userSpaceOnUse" color-interpolation-filters="sRGB">
<feFlood flood-opacity="0" result="BackgroundImageFix"/>
<feBlend mode="normal" in="SourceGraphic" in2="BackgroundImageFix" result="shape"/>
<feGaussianBlur stdDeviation="10.109" result="effect1_foregroundBlur_290_404"/>
</filter>
<filter id="filter4_f_290_404" x="288.154" y="87.4583" width="79.7324" height="81.5063" filterUnits="userSpaceOnUse" color-interpolation-filters="sRGB">
<feFlood flood-opacity="0" result="BackgroundImageFix"/>
<feBlend mode="normal" in="SourceGraphic" in2="BackgroundImageFix" result="shape"/>
<feGaussianBlur stdDeviation="10.109" result="effect1_foregroundBlur_290_404"/>
</filter>
<filter id="filter5_f_290_404" x="337.833" y="60.4482" width="75.1159" height="73.757" filterUnits="userSpaceOnUse" color-interpolation-filters="sRGB">
<feFlood flood-opacity="0" result="BackgroundImageFix"/>
<feBlend mode="normal" in="SourceGraphic" in2="BackgroundImageFix" result="shape"/>
<feGaussianBlur stdDeviation="9.606" result="effect1_foregroundBlur_290_404"/>
</filter>
<filter id="filter6_f_290_404" x="269.417" y="55.7467" width="78.1355" height="78.7586" filterUnits="userSpaceOnUse" color-interpolation-filters="sRGB">
<feFlood flood-opacity="0" result="BackgroundImageFix"/>
<feBlend mode="normal" in="SourceGraphic" in2="BackgroundImageFix" result="shape"/>
<feGaussianBlur stdDeviation="8.706" result="effect1_foregroundBlur_290_404"/>
</filter>
<filter id="filter7_f_290_404" x="316.106" y="66.033" width="78.8783" height="77.5409" filterUnits="userSpaceOnUse" color-interpolation-filters="sRGB">
<feFlood flood-opacity="0" result="BackgroundImageFix"/>
<feBlend mode="normal" in="SourceGraphic" in2="BackgroundImageFix" result="shape"/>
<feGaussianBlur stdDeviation="7.775" result="effect1_foregroundBlur_290_404"/>
</filter>
<filter id="filter8_f_290_404" x="321.587" y="53.5118" width="56.2718" height="51.8109" filterUnits="userSpaceOnUse" color-interpolation-filters="sRGB">
<feFlood flood-opacity="0" result="BackgroundImageFix"/>
<feBlend mode="normal" in="SourceGraphic" in2="BackgroundImageFix" result="shape"/>
<feGaussianBlur stdDeviation="6.957" result="effect1_foregroundBlur_290_404"/>
</filter>
<filter id="filter9_f_290_404" x="292.474" y="40.7031" width="70.8565" height="69.3058" filterUnits="userSpaceOnUse" color-interpolation-filters="sRGB">
<feFlood flood-opacity="0" result="BackgroundImageFix"/>
<feBlend mode="normal" in="SourceGraphic" in2="BackgroundImageFix" result="shape"/>
<feGaussianBlur stdDeviation="5.876" result="effect1_foregroundBlur_290_404"/>
</filter>
<filter id="filter10_f_290_404" x="293.831" y="92.9633" width="55.5036" height="51.573" filterUnits="userSpaceOnUse" color-interpolation-filters="sRGB">
<feFlood flood-opacity="0" result="BackgroundImageFix"/>
<feBlend mode="normal" in="SourceGraphic" in2="BackgroundImageFix" result="shape"/>
<feGaussianBlur stdDeviation="7.273" result="effect1_foregroundBlur_290_404"/>
</filter>
<linearGradient id="paint0_linear_290_404" x1="326.447" y1="115.42" x2="360.153" y2="87.004" gradientUnits="userSpaceOnUse">
<stop stop-color="#4893FC"/>
<stop offset="0.27" stop-color="#4893FC"/>
<stop offset="0.777" stop-color="#969DFF"/>
<stop offset="1" stop-color="#BD99FE"/>
</linearGradient>
<clipPath id="clip0_290_404">
<rect width="65" height="65" fill="white" transform="translate(308 72)"/>
</clipPath>
</defs>
</svg>
